<?xml version="1.0" encoding="UTF-8" standalone="no"?>
<!DOCTYPE svg PUBLIC "-//W3C//DTD SVG 1.1//EN" "http://www.w3.org/Graphics/SVG/1.1/DTD/svg11.dtd">
<svg version="1.1" xmlns="http://www.w3.org/2000/svg" xmlns:xlink="http://www.w3.org/1999/xlink" preserveAspectRatio="xMidYMid meet" viewBox="0 0 640 640" width="640" height="640"><defs><path d="M332.18 380.05L332.18 440.9L202.7 440.9L202.7 380.05L332.18 380.05Z" id="a2nFOzbCTk"></path><path d="M347.27 440.9C355.55 440.9 362.36 447.71 362.36 455.99C362.36 464.26 355.55 471.08 347.27 471.08C331.3 471.08 203.58 471.08 187.61 471.08C179.33 471.08 172.52 464.26 172.52 455.99C172.52 447.71 179.33 440.9 187.61 440.9C219.54 440.9 331.3 440.9 347.27 440.9Z" id="a2nDfXxYdK"></path><path d="M484.05 22.76C496.71 22.76 506.93 32.98 506.93 45.64C506.93 76.35 506.93 322.08 506.93 352.79C506.93 365.45 20.16 365.45 20.16 352.79C20.16 322.08 20.16 76.35 20.16 45.64C20.16 32.98 30.38 22.76 43.04 22.76C131.24 22.76 439.95 22.76 484.05 22.76Z" id="c5amVT5WC"></path><path d="M484.05 45.64L484.05 304.11L43.04 304.11L43.04 45.64L484.05 45.64Z" id="a4iKp5aq9"></path><path d="M317.09 114.27C321.47 114.27 324.88 117.68 324.88 122.06C324.88 133.45 324.88 224.58 324.88 235.97C324.88 240.35 321.47 243.76 317.09 243.76C306.43 243.76 221.15 243.76 210.49 243.76C206.11 243.76 202.7 240.35 202.7 235.97C202.7 224.53 202.7 133.01 202.7 121.57C202.7 117.68 206.11 114.27 210.49 114.27C231.81 114.27 306.43 114.27 317.09 114.27Z" id="f2QkqlMymW"></path><path d="M294.21 205.3L294.21 220.39L233.37 220.39L233.37 205.3L294.21 205.3Z" id="aidAWraO"></path><path d="M286.42 159.54C286.42 172.2 276.2 182.42 263.55 182.42C250.89 182.42 240.67 172.2 240.67 159.54C240.67 146.89 250.89 136.66 263.55 136.66C276.2 136.66 286.42 146.89 286.42 159.54Z" id="c7sIL5dZVG"></path><path d="M332.18 380.05L332.18 402.93L202.7 402.93L202.7 380.05L332.18 380.05Z" id="bmFdPZWYI"></path><path d="M43.04 380.54C87.14 380.54 439.95 380.54 484.05 380.54C496.71 380.54 506.93 370.31 506.93 357.66C506.93 355.65 506.93 345.59 506.93 327.48L20.16 327.48L20.16 357.66C26.98 372.91 34.6 380.54 43.04 380.54Z" id="a4hWtJRne1"></path><path d="M517.56 451.12C517.56 451.12 517.56 451.12 517.56 451.12C517.56 511.16 517.56 544.52 517.56 551.19C517.56 551.19 517.56 551.19 517.56 551.19C452.9 551.19 416.98 551.19 409.8 551.19C409.8 551.19 409.8 551.19 409.8 551.19C409.8 491.15 409.8 457.79 409.8 451.12C409.8 451.12 409.8 451.12 409.8 451.12C474.46 451.12 510.38 451.12 517.56 451.12Z" id="a2PsRpU9Dc"></path><path d="M463.89 566.58C463.89 566.58 451.61 564.83 433.11 553.06C433.11 553.06 421.99 524.89 425.19 528.1C428.4 531.3 463.89 528.1 463.89 528.1C465.93 528.61 476.12 531.17 494.47 535.79L494.68 553.06C478.26 560.27 468 564.78 463.89 566.58Z" id="l99thpdaW"></path><path d="M636.16 503.1C668.42 512.14 687.12 543.8 687.12 573.46C687.12 578.44 687.12 618.35 687.12 623.34C687.12 634.5 676.78 643.56 664.02 643.56C624 643.56 303.79 643.56 263.76 643.56C251.01 643.56 240.67 634.5 240.67 623.34C240.67 618.35 240.67 578.44 240.67 573.46C240.67 543.8 259.36 512.14 291.62 503.1C296.93 502.2 323.5 497.7 371.31 489.61L463.89 528.1L556.05 489.61C604.12 497.7 630.82 502.2 636.16 503.1Z" id="e2DzWYZX8"></path><path d="M335.78 496.43C394.3 590.8 451.27 603.28 457.57 604.38C458.07 604.47 462.06 605.18 462.55 605.26C463 605.35 463.44 605.38 463.89 605.38C464.34 605.38 464.79 605.35 465.23 605.26C465.73 605.18 469.72 604.47 470.21 604.38C476.51 603.28 533.49 590.8 592 496.43C592.14 496.21 592.14 495.94 592.25 495.7C589.84 495.3 577.77 493.27 556.05 489.61L463.89 528.09L371.31 489.61L335.52 495.67C335.59 496.02 335.68 496.28 335.78 496.43Z" id="b1P6BbYstL"></path><path d="M365.56 489.61C393.71 531.16 409.35 554.25 412.48 558.87C415.19 562.87 420.88 563.41 424.3 559.99C426.94 557.87 440.13 547.23 463.89 528.1L394.62 451.12L365.56 489.61Z" id="a9NzkVPQY"></path><path d="M562.22 489.61C534.07 531.16 518.43 554.25 515.3 558.87C512.59 562.87 506.91 563.41 503.49 559.99C500.85 557.87 487.65 547.23 463.89 528.1L533.17 451.12L562.22 489.61Z" id="ar553yfR7"></path><path d="M556.26 281.78C556.26 281.78 488.91 244.58 379.22 258.69C379.2 258.69 379.03 258.69 379.01 258.69C359.32 283.54 348.22 314.06 348.22 351.06C348.22 427.58 399.91 489.61 463.68 489.61C527.45 489.61 579.14 427.58 579.14 351.06C579.14 338.64 577.65 326.66 575.1 315.21C573.11 317.44 571.84 318.84 571.84 318.84C568.72 311.43 557.82 285.49 556.26 281.78Z" id="f23aUfqfxF"></path><path d="M417.5 320.27C400.49 320.27 386.71 334.05 386.71 351.06C386.71 368.06 400.49 381.85 417.5 381.85C434.5 381.85 448.29 368.06 448.29 351.06C448.29 334.05 434.5 320.27 417.5 320.27Z" id="hcssi3d2q"></path><path d="M395.84 329.19C400.19 333.54 435.01 368.36 439.36 372.71C444.87 367.15 448.29 359.5 448.29 351.06C448.29 334.05 434.5 320.27 417.5 320.27C409.05 320.27 401.4 323.68 395.84 329.19Z" id="e1zVuIl2mL"></path><path d="M509.86 320.27C492.86 320.27 479.08 334.05 479.08 351.06C479.08 368.06 492.86 381.85 509.86 381.85C526.87 381.85 540.65 368.06 540.65 351.06C540.65 334.05 526.87 320.27 509.86 320.27Z" id="a248zzAlht"></path><path d="M488.42 329.19C492.77 333.54 527.59 368.36 531.94 372.71C537.45 367.15 540.86 359.5 540.86 351.06C540.86 334.05 527.08 320.27 510.08 320.27C501.63 320.27 493.98 323.68 488.42 329.19Z" id="e1UVr1CjAw"></path><path d="M578.26 166.39C558.97 169.18 535.59 164.46 510.85 159.49C469.36 151.17 426.47 142.55 392.95 166.47C392.46 166.37 391.95 166.32 391.42 166.32C357.04 166.32 333.03 194.81 333.03 235.6C333.03 268.81 347.76 332.34 348.39 335.03C349.18 338.41 352.14 340.84 355.6 340.97C355.7 340.98 355.8 340.98 355.89 340.98C359.24 340.98 362.22 338.8 363.23 335.58C365.42 328.59 382.9 272.71 385.08 265.72C477.01 255.1 537.97 281.45 550.26 287.37C551.71 290.82 563.29 318.39 564.74 321.83C565.99 324.79 568.95 326.84 572.17 326.54C575.4 326.39 578.19 324.26 579.17 321.18C602.24 248.89 593.79 187.72 586.39 170.91C585.01 167.76 581.73 165.92 578.26 166.39Z" id="c2Y6jZIu4B"></path><path d="M471.59 351.06C471.59 346.81 468.14 343.36 463.89 343.36C459.64 343.36 456.19 346.81 456.19 351.06C456.19 355.31 452.75 358.75 448.5 358.75C444.24 358.75 440.8 355.31 440.8 351.06C440.8 338.32 451.16 327.96 463.89 327.96C476.62 327.96 486.98 338.32 486.98 351.06C486.98 355.31 483.54 358.75 479.29 358.75C475.03 358.75 471.59 355.31 471.59 351.06Z" id="h1Bxhbfh9L"></path><path d="M348.22 351.06C343.97 351.06 340.52 347.61 340.52 343.36C340.52 339.1 343.97 335.66 348.22 335.66C352.09 335.66 383.05 335.66 386.92 335.66C391.17 335.66 394.61 339.1 394.61 343.36C394.61 347.61 391.17 351.06 386.92 351.06C379.18 351.06 352.09 351.06 348.22 351.06Z" id="a9FEX2y5f"></path><path d="M540.86 351.06C536.61 351.06 533.17 347.61 533.17 343.36C533.17 339.1 536.61 335.66 540.86 335.66C544.69 335.66 575.31 335.66 579.14 335.66C583.4 335.66 586.84 339.1 586.84 343.36C586.84 347.61 583.4 351.06 579.14 351.06C571.49 351.06 544.69 351.06 540.86 351.06Z" id="a7z62YhLa"></path><path d="M420.86 312.7L422.41 312.85L423.94 313.07L425.45 313.35L426.94 313.69L428.41 314.08L429.86 314.53L431.28 315.04L432.67 315.6L434.04 316.21L435.38 316.87L436.69 317.58L437.96 318.34L439.21 319.15L440.42 320L441.6 320.9L442.74 321.85L443.84 322.83L444.91 323.85L445.93 324.92L446.92 326.02L447.86 327.16L448.76 328.34L449.61 329.55L450.42 330.8L451.18 332.08L451.89 333.38L452.55 334.72L453.16 336.09L453.72 337.48L454.23 338.9L454.68 340.35L455.07 341.82L455.41 343.31L455.69 344.82L455.91 346.35L456.07 347.9L456.16 349.47L456.19 351.06L456.16 352.64L456.07 354.21L455.91 355.76L455.69 357.29L455.41 358.8L455.07 360.29L454.68 361.76L454.23 363.21L453.72 364.63L453.16 366.02L452.55 367.39L451.89 368.73L451.18 370.04L450.42 371.31L449.61 372.56L448.76 373.77L447.86 374.95L446.92 376.09L445.93 377.19L444.91 378.26L443.84 379.28L442.74 380.27L441.6 381.21L440.42 382.11L439.21 382.96L437.96 383.77L436.69 384.53L435.38 385.24L434.04 385.9L432.67 386.51L431.28 387.07L429.86 387.58L428.41 388.03L426.94 388.42L425.45 388.76L423.94 389.04L422.41 389.26L420.86 389.41L419.29 389.51L417.71 389.54L416.12 389.51L414.56 389.41L413 389.26L411.47 389.04L409.96 388.76L408.47 388.42L407 388.03L405.56 387.58L404.14 387.07L402.74 386.51L401.37 385.9L400.04 385.24L398.73 384.53L397.45 383.77L396.2 382.96L394.99 382.11L393.82 381.21L392.67 380.27L391.57 379.28L390.51 378.26L389.48 377.19L388.5 376.09L387.55 374.95L386.66 373.77L385.8 372.56L384.99 371.31L384.23 370.04L383.52 368.73L382.86 367.39L382.25 366.02L381.69 364.63L381.19 363.21L380.74 361.76L380.34 360.29L380 358.8L379.72 357.29L379.51 355.76L379.35 354.21L379.25 352.64L379.22 351.06L379.25 349.47L379.35 347.9L379.51 346.35L379.72 344.82L380 343.31L380.34 341.82L380.74 340.35L381.19 338.9L381.69 337.48L382.25 336.09L382.86 334.72L383.52 333.38L384.23 332.08L384.99 330.8L385.8 329.55L386.66 328.34L387.55 327.16L388.5 326.02L389.48 324.92L390.51 323.85L391.57 322.83L392.67 321.85L393.82 320.9L394.99 320L396.2 319.15L397.45 318.34L398.73 317.58L400.04 316.87L401.37 316.21L402.74 315.6L404.14 315.04L405.56 314.53L407 314.08L408.47 313.69L409.96 313.35L411.47 313.07L413 312.85L414.56 312.7L416.12 312.6L417.71 312.57L419.29 312.6L420.86 312.7ZM415.02 328.12L413.71 328.31L412.42 328.57L411.16 328.91L409.93 329.31L408.73 329.78L407.56 330.31L406.43 330.91L405.34 331.56L404.28 332.28L403.27 333.04L402.31 333.86L401.39 334.73L400.51 335.65L399.69 336.62L398.93 337.63L398.21 338.69L397.56 339.78L396.97 340.91L396.43 342.08L395.96 343.28L395.56 344.51L395.23 345.77L394.96 347.05L394.77 348.37L394.65 349.7L394.61 351.06L394.65 352.41L394.77 353.75L394.96 355.06L395.23 356.34L395.56 357.6L395.96 358.84L396.43 360.04L396.97 361.2L397.56 362.33L398.21 363.43L398.93 364.48L399.69 365.49L400.51 366.46L401.39 367.38L402.31 368.25L403.27 369.07L404.28 369.84L405.34 370.55L406.43 371.2L407.56 371.8L408.73 372.33L409.93 372.8L411.16 373.2L412.42 373.54L413.71 373.8L415.02 373.99L416.35 374.11L417.71 374.15L419.06 374.11L420.4 373.99L421.71 373.8L423 373.54L424.26 373.2L425.49 372.8L426.69 372.33L427.85 371.8L428.98 371.2L430.08 370.55L431.13 369.84L432.14 369.07L433.11 368.25L434.03 367.38L434.9 366.46L435.72 365.49L436.49 364.48L437.2 363.43L437.85 362.33L438.45 361.2L438.98 360.04L439.45 358.84L439.85 357.6L440.19 356.34L440.45 355.06L440.64 353.75L440.76 352.41L440.8 351.06L440.76 349.7L440.64 348.37L440.45 347.05L440.19 345.77L439.85 344.51L439.45 343.28L438.98 342.08L438.45 340.91L437.85 339.78L437.2 338.69L436.49 337.63L435.72 336.62L434.9 335.65L434.03 334.73L433.11 333.86L432.14 333.04L431.13 332.28L430.08 331.56L428.98 330.91L427.85 330.31L426.69 329.78L425.49 329.31L424.26 328.91L423 328.57L421.71 328.31L420.4 328.12L419.06 328L417.71 327.96L416.35 328L415.02 328.12Z" id="bWYFA1If5"></path><path d="M513.23 312.7L514.78 312.85L516.31 313.07L517.82 313.35L519.31 313.69L520.78 314.08L522.23 314.53L523.65 315.04L525.04 315.6L526.41 316.21L527.75 316.87L529.06 317.58L530.33 318.34L531.58 319.15L532.79 320L533.97 320.9L535.11 321.85L536.21 322.83L537.28 323.85L538.3 324.92L539.29 326.02L540.23 327.16L541.13 328.34L541.98 329.55L542.79 330.8L543.55 332.08L544.26 333.38L544.92 334.72L545.53 336.09L546.09 337.48L546.6 338.9L547.05 340.35L547.44 341.82L547.78 343.31L548.06 344.82L548.28 346.35L548.43 347.9L548.53 349.47L548.56 351.06L548.53 352.64L548.43 354.21L548.28 355.76L548.06 357.29L547.78 358.8L547.44 360.29L547.05 361.76L546.6 363.21L546.09 364.63L545.53 366.02L544.92 367.39L544.26 368.73L543.55 370.04L542.79 371.31L541.98 372.56L541.13 373.77L540.23 374.95L539.29 376.09L538.3 377.19L537.28 378.26L536.21 379.28L535.11 380.27L533.97 381.21L532.79 382.11L531.58 382.96L530.33 383.77L529.06 384.53L527.75 385.24L526.41 385.9L525.04 386.51L523.65 387.07L522.23 387.58L520.78 388.03L519.31 388.42L517.82 388.76L516.31 389.04L514.78 389.26L513.23 389.41L511.66 389.51L510.08 389.54L508.49 389.51L506.92 389.41L505.37 389.26L503.84 389.04L502.33 388.76L500.84 388.42L499.37 388.03L497.92 387.58L496.5 387.07L495.11 386.51L493.74 385.9L492.4 385.24L491.1 384.53L489.82 383.77L488.57 382.96L487.36 382.11L486.18 381.21L485.04 380.27L483.94 379.28L482.87 378.26L481.85 377.19L480.86 376.09L479.92 374.95L479.02 373.77L478.17 372.56L477.36 371.31L476.6 370.04L475.89 368.73L475.23 367.39L474.62 366.02L474.06 364.63L473.55 363.21L473.1 361.76L472.71 360.29L472.37 358.8L472.09 357.29L471.87 355.76L471.72 354.21L471.62 352.64L471.59 351.06L471.62 349.47L471.72 347.9L471.87 346.35L472.09 344.82L472.37 343.31L472.71 341.82L473.1 340.35L473.55 338.9L474.06 337.48L474.62 336.09L475.23 334.72L475.89 333.38L476.6 332.08L477.36 330.8L478.17 329.55L479.02 328.34L479.92 327.16L480.86 326.02L481.85 324.92L482.87 323.85L483.94 322.83L485.04 321.85L486.18 320.9L487.36 320L488.57 319.15L489.82 318.34L491.1 317.58L492.4 316.87L493.74 316.21L495.11 315.6L496.5 315.04L497.92 314.53L499.37 314.08L500.84 313.69L502.33 313.35L503.84 313.07L505.37 312.85L506.92 312.7L508.49 312.6L510.08 312.57L511.66 312.6L513.23 312.7ZM507.39 328.12L506.07 328.31L504.79 328.57L503.53 328.91L502.3 329.31L501.1 329.78L499.93 330.31L498.8 330.91L497.7 331.56L496.65 332.28L495.64 333.04L494.67 333.86L493.75 334.73L492.88 335.65L492.06 336.62L491.3 337.63L490.58 338.69L489.93 339.78L489.33 340.91L488.8 342.08L488.33 343.28L487.93 344.51L487.59 345.77L487.33 347.05L487.14 348.37L487.02 349.7L486.98 351.06L487.02 352.41L487.14 353.75L487.33 355.06L487.59 356.34L487.93 357.6L488.33 358.84L488.8 360.04L489.33 361.2L489.93 362.33L490.58 363.43L491.3 364.48L492.06 365.49L492.88 366.46L493.75 367.38L494.67 368.25L495.64 369.07L496.65 369.84L497.7 370.55L498.8 371.2L499.93 371.8L501.1 372.33L502.3 372.8L503.53 373.2L504.79 373.54L506.07 373.8L507.39 373.99L508.72 374.11L510.08 374.15L511.43 374.11L512.76 373.99L514.08 373.8L515.36 373.54L516.62 373.2L517.86 372.8L519.06 372.33L520.22 371.8L521.35 371.2L522.45 370.55L523.5 369.84L524.51 369.07L525.48 368.25L526.4 367.38L527.27 366.46L528.09 365.49L528.86 364.48L529.57 363.43L530.22 362.33L530.82 361.2L531.35 360.04L531.82 358.84L532.22 357.6L532.56 356.34L532.82 355.06L533.01 353.75L533.13 352.41L533.17 351.06L533.13 349.7L533.01 348.37L532.82 347.05L532.56 345.77L532.22 344.51L531.82 343.28L531.35 342.08L530.82 340.91L530.22 339.78L529.57 338.69L528.86 337.63L528.09 336.62L527.27 335.65L526.4 334.73L525.48 333.86L524.51 333.04L523.5 332.28L522.45 331.56L521.35 330.91L520.22 330.31L519.06 329.78L517.86 329.31L516.62 328.91L515.36 328.57L514.08 328.31L512.76 328.12L511.43 328L510.08 327.96L508.72 328L507.39 328.12Z" id="a3lHmWmkQn"></path><path d="M317.64 592.09C317.64 573.58 310.43 556.19 297.35 543.11C294.51 540.26 271.76 517.51 268.91 514.67C264.83 517.86 261.15 521.47 257.9 525.43C260.76 528.28 283.61 551.14 286.47 553.99C296.65 564.17 302.25 577.7 302.25 592.09C302.25 595.52 302.25 612.68 302.25 643.56L317.64 643.56L317.64 643.56C317.64 612.67 317.64 595.52 317.64 592.09Z" id="k2v4FHJJrC"></path><path d="M630.43 543.11C617.34 556.19 610.14 573.58 610.14 592.09C610.14 595.52 610.14 612.67 610.14 643.56L625.54 643.56C625.54 612.67 625.54 595.52 625.54 592.09C625.54 577.7 631.14 564.17 641.31 553.99C644.17 551.13 667.02 528.28 669.88 525.43C666.64 521.47 662.95 517.86 658.87 514.67C653.18 520.35 633.27 540.26 630.43 543.11Z" id="c1ozcuIngC"></path><path d="M240.67 644.12L240.67 652.14L248.51 660.96L257.9 666.41L317.64 666.41L610.14 444.53L579.14 397.22L240.67 596.89L240.67 644.12Z" id="a3nnnElp9T"></path><path d="M579.08 398.59L592.62 389.03L605.36 378.68L618.1 369.92L630.04 357.98L641.98 346.84L654.72 338.08L668.25 346.04L663.48 362.76L655.52 376.29L648.35 392.22L641.18 407.34L632.43 420.08L621.28 432.02L608.54 440.78" id="bQZpzUKLx"></path><path d="M687.12 659.51L687.12 667.53L679.28 676.35L669.88 681.81L610.14 681.81L317.64 459.93L348.64 412.62L687.12 612.28L687.12 659.51Z" id="bL6DxLdD"></path><path d="M348.7 413.98L335.16 404.43L322.42 394.08L309.69 385.32L297.74 373.38L285.8 362.23L273.06 353.47L259.53 361.44L264.31 378.15L272.27 391.69L279.43 407.61L286.6 422.74L295.36 435.48L306.5 447.42L319.24 456.18" id="b2phZqeo"></path></defs><g><g><g><use xlink:href="#a2nFOzbCTk" opacity="1" fill="#ccd0d2" fill-opacity="1"></use><g><use xlink:href="#a2nFOzbCTk" opacity="1" fill-opacity="0" stroke="#000000" stroke-width="1" stroke-opacity="0"></use></g></g><g><use xlink:href="#a2nDfXxYdK" opacity="1" fill="#e4e7e7" fill-opacity="1"></use><g><use xlink:href="#a2nDfXxYdK" opacity="1" fill-opacity="0" stroke="#000000" stroke-width="1" stroke-opacity="0"></use></g></g><g><use xlink:href="#c5amVT5WC" opacity="1" fill="#36434f" fill-opacity="1"></use><g><use xlink:href="#c5amVT5WC" opacity="1" fill-opacity="0" stroke="#000000" stroke-width="1" stroke-opacity="0"></use></g></g><g><use xlink:href="#a4iKp5aq9" opacity="1" fill="#465765" fill-opacity="1"></use><g><use xlink:href="#a4iKp5aq9" opacity="1" fill-opacity="0" stroke="#000000" stroke-width="1" stroke-opacity="0"></use></g></g><g><use xlink:href="#f2QkqlMymW" opacity="1" fill="#e4e7e7" fill-opacity="1"></use><g><use xlink:href="#f2QkqlMymW" opacity="1" fill-opacity="0" stroke="#000000" stroke-width="1" stroke-opacity="0"></use></g></g><g><use xlink:href="#aidAWraO" opacity="1" fill="#ffffff" fill-opacity="1"></use><g><use xlink:href="#aidAWraO" opacity="1" fill-opacity="0" stroke="#000000" stroke-width="1" stroke-opacity="0"></use></g></g><g><use xlink:href="#c7sIL5dZVG" opacity="1" fill="#c2c5c5" fill-opacity="1"></use><g><use xlink:href="#c7sIL5dZVG" opacity="1" fill-opacity="0" stroke="#000000" stroke-width="1" stroke-opacity="0"></use></g></g><g><use xlink:href="#bmFdPZWYI" opacity="1" fill="#b7bbbd" fill-opacity="1"></use><g><use xlink:href="#bmFdPZWYI" opacity="1" fill-opacity="0" stroke="#000000" stroke-width="1" stroke-opacity="0"></use></g></g><g><use xlink:href="#a4hWtJRne1" opacity="1" fill="#e4e7e7" fill-opacity="1"></use><g><use xlink:href="#a4hWtJRne1" opacity="1" fill-opacity="0" stroke="#000000" stroke-width="1" stroke-opacity="0"></use></g></g><g><use xlink:href="#a2PsRpU9Dc" opacity="1" fill="#fcb47e" fill-opacity="1"></use><g><use xlink:href="#a2PsRpU9Dc" opacity="1" fill-opacity="0" stroke="#000000" stroke-width="1" stroke-opacity="0"></use></g></g><g><use xlink:href="#l99thpdaW" opacity="1" fill="#4296d9" fill-opacity="1"></use><g><use xlink:href="#l99thpdaW" opacity="1" fill-opacity="0" stroke="#000000" stroke-width="1" stroke-opacity="0"></use></g></g><g><use xlink:href="#e2DzWYZX8" opacity="1" fill="#996459" fill-opacity="1"></use><g><use xlink:href="#e2DzWYZX8" opacity="1" fill-opacity="0" stroke="#000000" stroke-width="1" stroke-opacity="0"></use></g></g><g><use xlink:href="#b1P6BbYstL" opacity="1" fill="#7e5c62" fill-opacity="1"></use><g><use xlink:href="#b1P6BbYstL" opacity="1" fill-opacity="0" stroke="#000000" stroke-width="1" stroke-opacity="0"></use></g></g><g><use xlink:href="#a9NzkVPQY" opacity="1" fill="#4bb9ec" fill-opacity="1"></use><g><use xlink:href="#a9NzkVPQY" opacity="1" fill-opacity="0" stroke="#000000" stroke-width="1" stroke-opacity="0"></use></g></g><g><use xlink:href="#ar553yfR7" opacity="1" fill="#4bb9ec" fill-opacity="1"></use><g><use xlink:href="#ar553yfR7" opacity="1" fill-opacity="0" stroke="#000000" stroke-width="1" stroke-opacity="0"></use></g></g><g><use xlink:href="#f23aUfqfxF" opacity="1" fill="#ffdcad" fill-opacity="1"></use><g><use xlink:href="#f23aUfqfxF" opacity="1" fill-opacity="0" stroke="#000000" stroke-width="1" stroke-opacity="0"></use></g></g><g><use xlink:href="#hcssi3d2q" opacity="1" fill="#aeefff" fill-opacity="1"></use><g><use xlink:href="#hcssi3d2q" opacity="1" fill-opacity="0" stroke="#000000" stroke-width="1" stroke-opacity="0"></use></g></g><g><use xlink:href="#e1zVuIl2mL" opacity="1" fill="#ffffff" fill-opacity="1"></use><g><use xlink:href="#e1zVuIl2mL" opacity="1" fill-opacity="0" stroke="#000000" stroke-width="1" stroke-opacity="0"></use></g></g><g><use xlink:href="#a248zzAlht" opacity="1" fill="#aeefff" fill-opacity="1"></use><g><use xlink:href="#a248zzAlht" opacity="1" fill-opacity="0" stroke="#000000" stroke-width="1" stroke-opacity="0"></use></g></g><g><use xlink:href="#e1UVr1CjAw" opacity="1" fill="#ffffff" fill-opacity="1"></use><g><use xlink:href="#e1UVr1CjAw" opacity="1" fill-opacity="0" stroke="#000000" stroke-width="1" stroke-opacity="0"></use></g></g><g><use xlink:href="#c2Y6jZIu4B" opacity="1" fill="#7e5c62" fill-opacity="1"></use><g><use xlink:href="#c2Y6jZIu4B" opacity="1" fill-opacity="0" stroke="#000000" stroke-width="1" stroke-opacity="0"></use></g></g><g><use xlink:href="#h1Bxhbfh9L" opacity="1" fill="#5c546a" fill-opacity="1"></use><g><use xlink:href="#h1Bxhbfh9L" opacity="1" fill-opacity="0" stroke="#000000" stroke-width="1" stroke-opacity="0"></use></g></g><g><use xlink:href="#a9FEX2y5f" opacity="1" fill="#5c546a" fill-opacity="1"></use><g><use xlink:href="#a9FEX2y5f" opacity="1" fill-opacity="0" stroke="#000000" stroke-width="1" stroke-opacity="0"></use></g></g><g><use xlink:href="#a7z62YhLa" opacity="1" fill="#5c546a" fill-opacity="1"></use><g><use xlink:href="#a7z62YhLa" opacity="1" fill-opacity="0" stroke="#000000" stroke-width="1" stroke-opacity="0"></use></g></g><g><use xlink:href="#bWYFA1If5" opacity="1" fill="#868491" fill-opacity="1"></use><g><use xlink:href="#bWYFA1If5" opacity="1" fill-opacity="0" stroke="#000000" stroke-width="1" stroke-opacity="0"></use></g></g><g><use xlink:href="#a3lHmWmkQn" opacity="1" fill="#868491" fill-opacity="1"></use><g><use xlink:href="#a3lHmWmkQn" opacity="1" fill-opacity="0" stroke="#000000" stroke-width="1" stroke-opacity="0"></use></g></g><g><use xlink:href="#k2v4FHJJrC" opacity="1" fill="#7e5c62" fill-opacity="1"></use><g><use xlink:href="#k2v4FHJJrC" opacity="1" fill-opacity="0" stroke="#000000" stroke-width="1" stroke-opacity="0"></use></g></g><g><use xlink:href="#c1ozcuIngC" opacity="1" fill="#7e5c62" fill-opacity="1"></use><g><use xlink:href="#c1ozcuIngC" opacity="1" fill-opacity="0" stroke="#000000" stroke-width="1" stroke-opacity="0"></use></g></g><g><use xlink:href="#a3nnnElp9T" opacity="1" fill="#a77267" fill-opacity="1"></use></g><g><use xlink:href="#bQZpzUKLx" opacity="1" fill="#ffdcad" fill-opacity="1"></use></g><g><use xlink:href="#bL6DxLdD" opacity="1" fill="#a77267" fill-opacity="1"></use></g><g><use xlink:href="#b2phZqeo" opacity="1" fill="#ffdcad" fill-opacity="1"></use></g></g></g></svg>